<?xml version="1.0" encoding="utf-8"?>
<!-- Generator: Adobe Illustrator 27.7.0, SVG Export Plug-In . SVG Version: 6.00 Build 0)  -->
<svg version="1.1" id="Calque_1" xmlns="http://www.w3.org/2000/svg" x="0px" y="0px"
	 viewBox="0 0 554.9 147.1" style="enable-background:new 0 0 554.9 147.1;" xml:space="preserve">
<g>
	<polygon points="53.9,85.3 65.7,80 58.4,60.2 47.8,65.5 	"/>
	<polygon points="33.9,111.9 36.2,104.7 20.2,111.9 	"/>
	<polygon points="57.2,100.1 60,109.1 74.8,109.1 67,87.9 40,100.1 	"/>
	<polygon points="54.3,34.1 39.8,34.1 32.6,53.5 57,41.4 	"/>
	<polygon points="39.9,88.2 45.6,68.8 30.5,76.2 20.8,102.5 52.4,88.2 	"/>
	<polygon points="84.3,38.8 84.3,61.7 106.3,53.1 98,38.8 	"/>
	<polygon points="84.3,118.5 97.8,118.5 97.3,84.9 84.3,89.9 	"/>
	<polygon points="131.2,33.9 131.2,29.3 117.8,29.3 118,39.1 130.8,34 	"/>
	<polygon points="131.2,61.9 118,67.1 118.4,88.1 108.4,70.9 97.7,75 114,102.9 131.2,94.8 	"/>
	<polygon points="131.2,100.1 116,107.2 117.5,109.7 127.5,109.7 131.2,104.4 	"/>
	<polygon points="151.4,73.1 174.5,47.9 175.3,46.7 161.2,46.7 	"/>
	<polygon points="175.5,96 161.4,96 167.9,73.4 147.7,95.6 140.5,114.9 155.4,114.9 158.1,106 178.7,106 181.4,114.9 196.3,114.9 
		177.2,63.3 168.4,73 	"/>
	<polygon points="218.2,79.2 205.8,64.7 205.8,113.9 215.2,113.9 216.6,79.1 	"/>
	<polygon points="267.4,50.3 267.4,45.8 254.2,43.3 246.9,41.7 246.9,42 	"/>
	<polygon points="205.8,51.8 205.8,52.1 218.4,66.9 218.3,62.7 220,68.8 235.8,87.3 226.2,51.8 	"/>
	<polygon points="245.8,50.7 244.8,54.7 253.5,62.7 255.1,56.9 254.9,64 258.5,67.3 267.4,75.6 267.4,59.4 	"/>
	<polygon points="230.6,112.4 242.7,112.4 244,107.9 222.5,82.7 	"/>
	<polygon points="219.4,97.3 219.3,94.2 219.2,97.3 	"/>
	<polygon points="254.8,75.7 254,108.2 267.4,108.2 267.4,87.4 255.7,76.6 	"/>
	<polygon points="237.2,86.6 245.2,96 252.3,70.4 243.6,62.4 	"/>
	<polygon points="282.1,98.1 288.3,103.8 295.6,109.9 295.1,79 282.1,74.2 	"/>
	<polygon points="329,31.4 315.6,31.4 315.8,41 329,43.4 	"/>
	<polygon points="316.2,79.8 313.9,75.9 297.2,69.7 315.3,100.6 329,100.6 329,81.6 316.1,76.8 	"/>
	<polygon points="282.1,44.3 282.1,52 310.7,62.6 302.3,48.1 	"/>
	<polygon points="295.8,24.5 282.1,24.5 282.1,27.8 299.6,31 	"/>
	<polygon points="328.9,59.4 315.9,56.9 316.1,70.9 329,75.8 329,59.4 	"/>
	<polygon points="282.1,123.8 282.1,131 290.3,131 285.6,127 	"/>
	<polygon points="387.5,87.1 362.1,87.1 387.5,96.6 	"/>
	<polygon points="343.8,104.4 380.1,104.4 343.8,90.8 	"/>
	<polygon points="357.7,43.9 385,43.9 385,33.2 343.8,33.2 343.8,46.7 357.7,48.1 	"/>
	<polygon points="357.7,63.6 357.7,61.6 343.8,60.2 343.8,80.6 357.7,85.8 357.7,74.2 383.2,74.2 383.2,64.2 377.3,63.6 	"/>
	<path d="M400.2,86.5c2.8,3.3,6.5,4.8,10.5,5.8c2.6,0.6,5.3,1.1,7.9,1.4c5,0.7,12.4,0.9,12.4,6c0,4.3-5.5,5.8-5.9,5.9
		c-1.8,0.6-3.7,0.6-4.3,0.6c-4.7,0-10-1.7-13.7-4.7c-1.1-0.9-2.2-2.1-2.4-2.4l-10.6,6.6c2.2,2.6,2.9,3.4,4.4,4.7
		c3.7,3,10,6.7,21,6.7c1.9,0,3.8-0.2,5.6-0.4c2.7-0.3,12.7-1.5,17.5-10.3c2.1-3.8,2.2-7.1,2.2-8.7c0-2.8-0.7-5-1.1-6
		c-0.8-1.8-1.8-3.2-3-4.4l-42.6-4.3C398.9,84.8,399.8,86,400.2,86.5z"/>
	<path d="M417.4,73.1c-5.2-0.8-8.3-0.7-10.2-2.8c-0.4-0.4-1.2-1.4-1.2-2.9c0-2.6,2.6-5.9,8.3-5.9c2.4,0,4.5,0.6,5.2,0.8
		c4.2,1.3,6.3,3.1,9.4,6.1l10.3-7.3c-3.2-2.8-4.3-3.7-6.2-5c-7.6-5.1-15-5.5-18.4-5.5c-9.2,0-14.6,3.2-17.4,5.8
		c-2.7,2.5-4.2,5.4-4.8,8.9c-0.2,1.6-0.3,3.4-0.3,3.9c0,0.6,0,1.1,0.1,1.6l28.3,2.9C419.5,73.4,418.5,73.3,417.4,73.1z"/>
	<polygon points="457,80.4 457,107.2 470.9,107.2 470.9,81.8 465.8,81.3 	"/>
	<polygon points="470.9,70.9 470.9,44.5 457,44.5 457,69.5 466.2,70.4 	"/>
	<path d="M518,97.8c0,4.3-5.5,5.8-5.9,5.9c-1.8,0.6-3.7,0.6-4.3,0.6c-4.7,0-10-1.7-13.7-4.7c-1.1-0.9-2.2-2.1-2.4-2.4l-10.6,6.6
		c2.2,2.6,2.9,3.4,4.4,4.7c3.7,3,10,6.7,21,6.7c1.9,0,3.8-0.2,5.6-0.4c2.7-0.3,12.7-1.5,17.5-10.3c2.1-3.8,2.2-7.1,2.2-8.7
		c0-0.2,0-0.5,0-0.7l-17.7-1.9C516.4,94,518,95.3,518,97.8z"/>
	<path d="M530.8,86.3c-2.8-6.8-10-8.2-12-8.6c-3.1-0.7-6.2-1.3-9.3-1.8c-5.2-0.8-8.3-0.7-10.2-2.8c-0.4-0.4-1.2-1.4-1.2-2.9
		c0-2.6,2.6-5.9,8.3-5.9c2.4,0,4.5,0.6,5.2,0.8c4.2,1.3,6.3,3.1,9.4,6.1l10.3-7.3c-3.2-2.8-4.3-3.7-6.2-5c-7.6-5.1-15-5.5-18.4-5.5
		c-9.2,0-14.6,3.2-17.4,5.8c-2.7,2.5-4.2,5.4-4.8,8.9c-0.2,1.6-0.3,3.4-0.3,3.9c0,2.3,0.5,4.1,0.7,4.9c0.7,2.1,1.8,3.5,2.4,4.1
		c0.7,0.8,1.4,1.5,2.1,2.1l41.8,4.5C531,87,530.9,86.6,530.8,86.3z"/>
</g>
</svg>
